<?xml version="1.0" encoding="UTF-8"?>
<svg id="Layer_2" data-name="Layer 2" xmlns="http://www.w3.org/2000/svg" viewBox="0 0 61 78.6">
  <defs>
    <style>
      .cls-1 {
        fill: #fff;
      }
    </style>
  </defs>
  <g id="Layer_1-2" data-name="Layer 1">
    <g>
      <path class="cls-1" d="M55.86,3.38l-5.32,6.64c-1.34,1.68-3.61,1.4-4.65-.56l-4.16-7.8c-1.18-2.22-3.84-2.22-5.02,0l-3.69,6.92c-1.18,2.22-3.84,2.22-5.02,0l-3.69-6.92c-1.18-2.22-3.84-2.22-5.02,0l-4.16,7.8c-1.05,1.96-3.31,2.24-4.65.56L5.14,3.38C3.26,1.03,0,2.66,0,5.95v68.98c0,2.03,1.34,3.67,3,3.67h55c1.66,0,3-1.64,3-3.67V5.95c0-3.29-3.26-4.92-5.14-2.57ZM48.94,61.23H13.48c-1.18,0-2.13-1.17-2.13-2.61s.95-2.61,2.13-2.61h35.47c1.18,0,2.13,1.17,2.13,2.61s-.95,2.61-2.13,2.61ZM48.94,49.07H13.48c-1.18,0-2.13-1.17-2.13-2.61s.95-2.61,2.13-2.61h35.47c1.18,0,2.13,1.17,2.13,2.61s-.95,2.61-2.13,2.61ZM48.94,36.91H13.48c-1.18,0-2.13-1.17-2.13-2.61s.95-2.61,2.13-2.61h35.47c1.18,0,2.13,1.17,2.13,2.61s-.95,2.61-2.13,2.61Z"/>
      <path class="cls-1" d="M48.94,31.7H13.48c-1.18,0-2.13,1.17-2.13,2.61s.95,2.61,2.13,2.61h35.47c1.18,0,2.13-1.17,2.13-2.61s-.95-2.61-2.13-2.61Z"/>
      <path class="cls-1" d="M48.94,43.86H13.48c-1.18,0-2.13,1.17-2.13,2.61s.95,2.61,2.13,2.61h35.47c1.18,0,2.13-1.17,2.13-2.61s-.95-2.61-2.13-2.61Z"/>
      <path class="cls-1" d="M48.94,56.02H13.48c-1.18,0-2.13,1.17-2.13,2.61s.95,2.61,2.13,2.61h35.47c1.18,0,2.13-1.17,2.13-2.61s-.95-2.61-2.13-2.61Z"/>
    </g>
  </g>
</svg>