<?xml version="1.0" encoding="UTF-8"?>
<svg id="Layer_2" data-name="Layer 2" xmlns="http://www.w3.org/2000/svg" viewBox="0 0 61 64.19">
  <defs>
    <style>
      .cls-1 {
        fill: #fff;
      }
    </style>
  </defs>
  <g id="Layer_1-2" data-name="Layer 1">
    <g>
      <path class="cls-1" d="M55.86,2.76l-5.32,5.42c-1.34,1.37-3.61,1.15-4.65-.46l-4.16-6.37c-1.18-1.81-3.84-1.81-5.02,0l-3.69,5.65c-1.18,1.81-3.84,1.81-5.02,0l-3.69-5.65c-1.18-1.81-3.84-1.81-5.02,0l-4.16,6.37c-1.05,1.6-3.31,1.83-4.65.46L5.14,2.76C3.26.84,0,2.17,0,4.86v56.33c0,1.66,1.34,3,3,3h55c1.66,0,3-1.34,3-3V4.86c0-2.69-3.26-4.02-5.14-2.1ZM48.94,50H13.48c-1.18,0-2.13-.95-2.13-2.13s.95-2.13,2.13-2.13h35.47c1.18,0,2.13.95,2.13,2.13s-.95,2.13-2.13,2.13ZM48.94,40.07H13.48c-1.18,0-2.13-.95-2.13-2.13s.95-2.13,2.13-2.13h35.47c1.18,0,2.13.95,2.13,2.13s-.95,2.13-2.13,2.13ZM48.94,30.14H13.48c-1.18,0-2.13-.95-2.13-2.13s.95-2.13,2.13-2.13h35.47c1.18,0,2.13.95,2.13,2.13s-.95,2.13-2.13,2.13Z"/>
      <path class="cls-1" d="M48.94,25.89H13.48c-1.18,0-2.13.95-2.13,2.13s.95,2.13,2.13,2.13h35.47c1.18,0,2.13-.95,2.13-2.13s-.95-2.13-2.13-2.13Z"/>
      <path class="cls-1" d="M48.94,35.82H13.48c-1.18,0-2.13.95-2.13,2.13s.95,2.13,2.13,2.13h35.47c1.18,0,2.13-.95,2.13-2.13s-.95-2.13-2.13-2.13Z"/>
      <path class="cls-1" d="M48.94,45.75H13.48c-1.18,0-2.13.95-2.13,2.13s.95,2.13,2.13,2.13h35.47c1.18,0,2.13-.95,2.13-2.13s-.95-2.13-2.13-2.13Z"/>
    </g>
  </g>
</svg>