<?xml version="1.0" encoding="UTF-8"?>
<svg id="Layer_1" xmlns="http://www.w3.org/2000/svg" version="1.1" viewBox="0 0 61 67">
  <!-- Generator: Adobe Illustrator 29.8.5, SVG Export Plug-In . SVG Version: 2.1.1 Build 2)  -->
  <defs>
    <style>
      .st0 {
        fill: #fff;
      }
    </style>
  </defs>
  <path class="st0" d="M55.9,5.2l-5.3,5.4c-1.3,1.4-3.6,1.1-4.7-.5l-4.2-6.4c-1.2-1.8-3.8-1.8-5,0l-3.7,5.6c-1.2,1.8-3.8,1.8-5,0l-3.7-5.6c-1.2-1.8-3.8-1.8-5,0l-4.2,6.4c-1,1.6-3.3,1.8-4.7.5l-5.3-5.4c-1.9-1.9-5.1-.6-5.1,2.1v56.3c0,1.7,1.3,3,3,3h55c1.7,0,3-1.3,3-3V7.3c0-2.7-3.3-4-5.1-2.1ZM48.9,52.5H13.5c-1.2,0-2.1-1-2.1-2.1s1-2.1,2.1-2.1h35.5c1.2,0,2.1,1,2.1,2.1s-1,2.1-2.1,2.1ZM48.9,42.6H13.5c-1.2,0-2.1-1-2.1-2.1s1-2.1,2.1-2.1h35.5c1.2,0,2.1,1,2.1,2.1s-1,2.1-2.1,2.1ZM48.9,32.6H13.5c-1.2,0-2.1-1-2.1-2.1s1-2.1,2.1-2.1h35.5c1.2,0,2.1,1,2.1,2.1s-1,2.1-2.1,2.1Z"/>
</svg>