<?xml version="1.0" encoding="UTF-8"?>
<svg id="Layer_2" data-name="Layer 2" xmlns="http://www.w3.org/2000/svg" viewBox="0 0 149.77 79.6">
  <defs>
    <style>
      .cls-1 {
        fill: #fff;
      }
    </style>
  </defs>
  <g id="Layer_1-2" data-name="Layer 1">
    <path class="cls-1" d="M144.63,3.43l-5.32,6.73c-1.34,1.7-3.61,1.42-4.65-.57l-4.16-7.9c-1.18-2.25-3.84-2.25-5.02,0l-3.69,7.01c-1.18,2.25-3.84,2.25-5.02,0l-3.69-7.01c-1.18-2.25-3.84-2.25-5.02,0l-4.16,7.9c-.3.57-.7.99-1.14,1.27-.02.01-.03.02-.05.03-.14.09-.29.16-.44.22h0c-.15.06-.3.11-.45.13-1.04.11-2.12-.44-2.77-1.65l-3.69-6.92c-.11-.21-.25-.38-.39-.55l-.22-.43c-1.18-2.25-3.84-2.25-5.02,0l-3.69,7.01c-1.18,2.25-3.84,2.25-5.02,0l-3.69-7.01c-1.18-2.25-3.84-2.25-5.02,0l-4.16,7.9c-.4.77-.99,1.27-1.64,1.52v.04c-.23.07-.46.09-.7.09-.84-.12-1.65-.68-2.16-1.65l-4.16-7.9c-1.18-2.25-3.84-2.25-5.02,0l-3.69,7.01c-1.18,2.25-3.84,2.25-5.02,0l-3.69-7.01c-1.18-2.25-3.84-2.25-5.02,0l-4.16,7.9c-.4.77-.99,1.27-1.64,1.52v.04c-1.17.34-2.48-.18-3.22-1.56l-3.69-6.92c-1.18-2.22-3.84-2.22-5.02,0l-4.16,7.8c-1.05,1.96-3.31,2.24-4.65.56l-5.32-6.64C3.26,2.03,0,3.66,0,6.95v68.98c0,2.03,1.34,3.67,3,3.67h143.77c1.66,0,3-1.67,3-3.72V6.03c0-3.33-3.26-4.98-5.14-2.6Z"/>
  </g>
</svg>